<svg width="345" height="136" viewBox="0 0 345 136" fill="none" xmlns="http://www.w3.org/2000/svg">
<rect width="345" height="136" fill="#EDEDED"/>
<rect width="2514" height="1227" transform="translate(-1606 -209)" fill="white"/>
<g clip-path="url(#clip0_1_3085)">
<rect width="345" height="136" fill="#FFF3DD"/>
<g clip-path="url(#clip1_1_3085)">
<path d="M331.337 33.7807C328.397 33.3749 323.578 32.3264 322.723 29.0118C321.493 24.4121 328.124 22.9577 331.337 22.3827C340.737 20.7931 350.376 22.2475 359.844 22.2475C378.61 22.2136 397.102 18.6962 415.765 17.3771C425.097 16.7007 434.497 16.5992 443.794 17.783C445.913 18.0535 448.135 18.2565 450.186 18.8653C451.04 19.102 451.998 19.5079 452.647 20.1167C454.219 21.6387 452.681 23.0254 451.246 23.7694C447.554 25.6973 443.35 26.4752 439.214 26.6443C430.942 27.0163 422.704 25.3252 414.432 25.6296C410.57 25.7649 406.775 26.4075 403.118 27.7266C398.845 29.2824 394.88 31.4808 390.573 32.9352C385.583 34.6263 380.319 35.4718 375.021 35.4718C369.654 35.4718 364.356 34.6601 359.058 34.0513C348.325 32.8337 337.558 32.8675 326.859 34.288C326.21 34.3895 326.21 35.4042 326.859 35.3027C337.319 33.916 347.915 33.8145 358.409 34.9983C363.604 35.5733 368.8 36.385 374.064 36.4865C378.918 36.5879 383.805 35.9791 388.488 34.6601C393.274 33.3072 397.649 30.9735 402.264 29.1471C406.741 27.3884 411.356 26.6105 416.141 26.6105C424.96 26.5428 433.813 28.5045 442.632 27.3546C444.785 27.084 446.87 26.6105 448.921 25.8664C450.494 25.2914 452.613 24.5812 453.741 23.2621C455.86 20.7255 452.784 18.4932 450.494 17.8506C445.982 16.5316 440.889 16.2948 436.206 16.0242C431.113 15.7198 426.02 15.7536 420.927 15.9904C400.315 16.9712 379.943 21.2328 359.263 21.1652C353.384 21.1652 347.505 20.624 341.626 20.5902C336.635 20.5564 330.927 20.6578 326.244 22.5857C323.304 23.8033 320.433 26.6443 322.074 29.9927C323.612 33.1381 327.953 34.2204 331.098 34.6601C331.713 34.863 331.986 33.8822 331.337 33.7807Z" fill="#DBDBDB"/>
<path d="M0.768337 79.9476C29.2756 67.704 60.5175 79.1358 86.803 91.4132C100.202 97.6702 113.396 104.367 127.376 109.305C141.083 114.141 155.337 117.49 169.795 119.418C198.816 123.307 228.519 121.582 257.061 115.258C286.969 108.629 315.306 96.5879 344.975 89.0456C375.841 81.199 408.108 79.5079 439.589 84.5473C443.418 85.1561 447.212 85.8664 451.006 86.6781C451.655 86.8134 451.929 85.8326 451.28 85.6973C420.721 79.2711 388.967 78.9667 358.34 84.987C327.714 91.0073 298.899 103.318 268.853 111.334C239.697 119.113 209.241 122.259 179.127 119.452C164.156 118.065 149.321 115.19 134.965 110.725C120.13 106.126 106.218 99.429 92.2378 92.7999C66.9778 80.7931 38.4705 68.6172 9.89478 75.7537C6.57918 76.5654 3.40031 77.6815 0.255615 79.0344C-0.325469 79.3388 0.187252 80.2181 0.768337 79.9476Z" fill="#DBDBDB"/>
<path d="M117.737 67.8393C151.132 86.2722 190.886 87.6589 227.938 82.518C269.879 76.7006 310.281 63.0028 352.29 57.6589C375.67 54.6826 399.529 54.3105 422.67 59.3838C423.319 59.5191 423.593 58.5383 422.943 58.403C382.028 49.474 340.053 57.3545 299.993 66.5879C260.513 75.686 220.589 86.3061 179.674 83.7018C158.311 82.3489 137.05 77.3094 118.25 66.9599C117.703 66.6217 117.19 67.5011 117.737 67.8393Z" fill="#DBDBDB"/>
<path d="M18.0299 4.69386C46.7423 -2.07052 77.3689 0.601413 104.441 12.27C117.737 17.9859 130.213 25.4267 143.271 31.6161C156.431 37.8393 170.172 42.1347 184.664 44.0626C201.242 46.261 218.026 45.8889 234.638 44.8066C235.287 44.7728 235.287 43.7582 234.638 43.792C219.632 44.7728 204.49 45.1787 189.518 43.6229C174.342 42.0332 159.849 38.1099 146.005 31.7852C132.845 25.7311 120.403 18.2903 107.175 12.4053C94.1862 6.52025 80.4111 2.63073 66.2258 0.973453C50.0579 -0.954395 33.5825 -0.00738222 17.7565 3.71303C17.107 3.84831 17.3805 4.82915 18.0299 4.69386Z" fill="#DBDBDB"/>
</g>
<g clip-path="url(#clip2_1_3085)">
<path d="M271.623 77.2331C270.7 78.3154 269.401 79.9727 268.17 82.1711C263.966 89.4767 263.693 96.6469 263.624 102.938C263.556 112.103 263.487 116.703 264.479 126.681C265.402 136.016 265.641 149.409 262.325 166.489C265.299 168.654 269.64 171.156 275.314 172.476C291.653 176.264 305.189 166.827 307.752 165.001C304.505 146.162 302.728 131.078 301.702 120.491C301.053 113.795 298.66 104.054 293.909 84.5387C292.473 78.586 291.004 72.9039 286.56 71.2805C280.407 68.9806 272.853 76.0494 271.623 77.2331Z" fill="#EC615B"/>
<path opacity="0.1" d="M286.389 71.754C286.936 73.9524 287.722 77.2669 288.508 81.3594C289.534 86.6356 290.901 94.6176 291.858 106.489C292.849 118.733 293.977 141.698 294.319 171.393C296.643 170.717 299.446 169.702 302.42 168.079C304.403 166.996 306.112 165.846 307.547 164.764C307.308 162.16 306.864 158.203 306.146 153.434C305.223 147.447 304.3 143.287 303.856 141.224C302.762 135.88 301.531 127.898 301.395 116.805C299.993 110.92 298.934 106.185 298.216 103.039C296.233 94.1102 295.652 90.8295 294.148 85.418C292.644 79.9727 291.072 75.6435 290.081 73.0392C288.85 72.5657 287.62 72.1598 286.389 71.754Z" fill="#606060"/>
<path d="M271.588 80.4801C271.896 81.0889 272.409 81.2918 273.537 81.8329C274.494 82.3064 275.417 82.8814 276.374 83.2873C279.313 84.5387 282.766 90.0855 283.313 90.9649C285.398 94.3132 287.825 98.2366 289.226 103.919C289.602 105.407 290.457 109.263 289.465 122.284C288.406 135.644 287.038 137.504 288.098 144.167C288.884 149.003 289.876 154.787 294.695 157.932C299.173 160.841 304.334 159.826 305.394 159.623C311.888 158.372 315.58 153.4 319.169 148.564C324.638 141.224 326.723 133.885 327.612 129.623C328.022 127.628 327.954 121.777 327.851 110.108C327.714 98.0675 327.509 93.9074 324.33 90.3899C322.177 88.0223 319.545 86.9062 317.733 86.3312C317.87 85.5872 317.904 84.471 317.289 83.524C316.127 81.7653 313.358 81.7991 311.581 81.8329C303.958 82.0359 298.284 87.1092 298.011 87.3459C293.26 91.7089 291.858 97.0528 291.414 99.285C290.457 95.0911 288.884 91.878 287.654 89.8149C286.594 88.0223 285.022 86.196 281.843 82.4756C279.348 79.5669 278.151 78.4507 276.271 77.8419C275.861 77.7067 272.751 76.7935 271.725 78.1802C271.247 78.8228 271.247 79.8036 271.588 80.4801Z" fill="white"/>
<path opacity="0.11" d="M271.349 79.2286C271.554 78.8566 273.844 79.7022 274.084 79.8036C277.468 81.0889 280.476 83.7608 284.338 89.9502C286.321 93.1294 288.816 97.6278 290.935 103.479C292.439 101.957 293.704 100.706 294.695 99.7585C294.695 99.7585 298.353 96.2749 304.266 92.8927C304.847 92.5545 305.565 92.1486 306.077 92.453C307.137 93.028 306.009 95.8352 306.317 98.4395C306.556 100.401 307.718 103.107 312.128 106.117C312.23 106.692 312.264 107.504 311.786 108.045C310.829 109.093 308.368 108.248 307.103 107.808C305.052 107.098 301.087 105.238 296.404 99.7924C295.96 101.551 295.379 104.054 294.934 107.132C294.524 109.804 293.396 118.699 295.276 130.131C296.028 134.663 297.43 140.717 300.301 147.616C301.566 148.158 303.172 148.665 305.086 148.969C309.085 149.578 312.401 148.8 314.315 148.191C313.187 148.733 311.649 149.646 310.316 151.235C308.709 153.163 308.675 154.618 307.342 156.41C306.453 157.628 304.847 159.15 301.873 160.232C300.95 160.131 299.549 159.894 298.011 159.217C293.328 157.154 291.209 152.791 290.252 150.762C288.987 148.022 287.038 142.476 288.884 123.704C289.944 112.983 291.106 109.635 289.329 103.513C287.961 98.8115 285.603 94.922 284.783 93.6029C283.313 91.2354 280.681 87.0077 275.895 83.1182C273.639 81.2241 271.144 79.6683 271.349 79.2286Z" fill="#606060"/>
<path d="M309.462 86.8047C308.846 87.6165 308.06 88.8002 307.445 90.356C307.103 91.2692 306.283 93.4 306.488 96.1057C306.864 101.483 310.76 104.764 311.478 105.339C311.957 105.711 312.367 106.016 312.64 106.185C312.23 107.571 311.752 109.634 311.581 112.171C311.307 115.756 311.034 119.781 313.153 120.965C314.52 121.709 316.571 121.202 317.699 120.119C317.973 119.849 318.759 119.003 318.964 115.181C319.203 110.649 318.246 108.755 319.614 107.436C320.195 106.827 321.186 106.455 322.04 106.083C322.998 105.677 323.852 105.474 324.467 105.339C324.091 108.113 323.818 110.582 323.613 112.577C323.374 115.046 323.271 116.297 324.126 117.075C324.912 117.786 326.211 117.921 327.202 117.481C328.501 116.906 328.911 115.317 329.629 112.137C330.21 109.635 330.688 107.538 330.381 104.697C330.21 103.242 329.902 102.058 329.629 101.247C329.56 100.672 329.39 99.8262 329.116 98.8453C328.535 96.8837 327.988 96.3087 327.646 95.0573C327.134 93.2647 327.715 92.3853 327.851 90.356C327.988 88.7664 327.851 86.5003 326.689 83.6593C326.245 83.6931 325.322 83.7608 324.365 84.4034C323.203 85.1475 322.724 86.2298 322.553 86.6018C321.664 86.3989 320.058 86.1959 318.212 86.7033C315.033 87.5488 313.358 89.8825 312.914 90.5928C313.803 88.6649 313.051 86.7709 311.854 86.2974C310.829 85.8577 309.598 86.7371 309.462 86.8047Z" fill="#272727"/>
<path d="M313.324 97.2895C313.666 96.6469 315.375 95.2264 315.956 96.4102C316.23 96.9851 317.118 96.4778 316.845 95.9028C316.469 95.1249 315.546 94.8882 314.726 95.0573C313.734 95.2264 312.914 95.9028 312.435 96.7822C312.128 97.3572 313.016 97.8645 313.324 97.2895Z" fill="white"/>
<path d="M323.339 94.6853C323.544 94.2456 323.749 93.7382 324.091 93.4C324.433 93.0618 325.458 92.6898 325.493 93.4677C325.527 94.1103 326.552 94.1103 326.518 93.4677C326.45 92.4868 325.595 91.8442 324.604 91.9795C323.476 92.1824 322.895 93.1971 322.45 94.1441C322.177 94.7529 323.066 95.2941 323.339 94.6853Z" fill="white"/>
<path d="M323.613 97.8983C323.613 97.9321 323.613 97.9659 323.613 97.9998C323.544 98.0674 323.476 98.135 323.442 98.1689C323.271 98.2703 322.997 98.1689 323.032 97.9659C323.032 97.9659 323.032 97.8645 323.066 97.8983L322.963 97.9998C323.203 97.9998 323.442 97.9998 323.681 97.9998C323.647 97.9659 323.647 97.9659 323.613 97.9321C323.647 97.9659 323.647 97.9659 323.647 97.9659C323.613 97.9321 323.647 97.9321 323.647 97.9998C323.681 98.2027 323.579 98.338 323.305 98.4395C323.203 98.4056 323.134 98.4056 323.032 98.3718C322.895 98.3042 322.929 98.1012 322.963 97.9998C322.997 97.9659 322.963 97.9659 322.929 98.0336C322.963 97.9998 322.963 97.9998 322.929 98.0336C322.69 98.2027 322.587 98.4733 322.758 98.7439C322.895 98.9468 323.237 99.0821 323.476 98.913C323.715 98.7439 323.955 98.5071 323.989 98.1689C323.989 97.7968 323.715 97.4586 323.339 97.4586C322.963 97.4586 322.69 97.6954 322.656 98.0674C322.621 98.338 322.792 98.5747 322.963 98.7439C323.168 98.9468 323.476 98.913 323.681 98.7439C324.125 98.4056 324.228 97.6954 323.715 97.3571C323.476 97.2218 323.168 97.188 322.929 97.3233C322.621 97.4924 322.587 97.8983 322.656 98.2027C322.69 98.4733 323.032 98.6086 323.271 98.5409C323.544 98.4395 323.647 98.1689 323.613 97.8983Z" fill="white"/>
<path d="M318.144 98.9467C317.152 99.5217 315.819 99.2511 315.17 98.3041C314.794 97.763 313.905 98.2703 314.281 98.8114C315.272 100.198 317.152 100.672 318.691 99.8261C319.238 99.4879 318.725 98.6085 318.144 98.9467Z" fill="white"/>
<path d="M317.392 101.145C316.64 101.72 315.99 102.464 315.546 103.31C315.238 103.885 316.127 104.392 316.435 103.817C316.845 103.039 317.426 102.397 318.144 101.856C318.349 101.686 318.315 101.314 318.144 101.145C317.904 100.942 317.597 100.976 317.392 101.145Z" fill="white"/>
<path d="M325.698 97.4249C326.381 96.6469 326.894 95.7676 327.236 94.7867C327.441 94.1779 326.45 93.9073 326.245 94.5161C325.971 95.3279 325.527 96.072 324.98 96.7146C324.57 97.2219 325.288 97.9322 325.698 97.4249Z" fill="white"/>
<path d="M325.766 98.71C326.587 98.5409 327.544 98.338 328.193 99.0144C328.637 99.4879 329.355 98.7777 328.911 98.3042C327.988 97.3233 326.655 97.4924 325.459 97.763C324.843 97.8645 325.117 98.8453 325.766 98.71Z" fill="white"/>
<path d="M271.178 79.7021C272.751 77.267 276.476 78.7213 278.356 79.9389C280.612 81.3594 282.321 83.4902 283.86 85.621C286.97 89.9163 289.739 94.5837 290.764 99.8261C290.901 100.469 291.892 100.198 291.756 99.5556C290.559 93.2985 286.868 87.2782 282.697 82.4755C280.271 79.7021 273.4 74.4597 270.29 79.2286C269.948 79.736 270.837 80.2771 271.178 79.7021Z" fill="#272727"/>
<path d="M273.298 82.0021C281.501 86.568 286.116 95.1249 288.44 103.851C288.611 104.494 289.602 104.223 289.431 103.58C287.039 94.6176 282.219 85.7901 273.81 81.1227C273.229 80.7845 272.717 81.6639 273.298 82.0021Z" fill="#272727"/>
<path d="M291.756 99.3865C292.61 93.4 296.473 88.3944 301.771 85.5195C304.505 84.0314 307.547 83.1182 310.658 82.6785C312.128 82.4756 313.837 82.2726 315.272 82.8138C316.845 83.3887 318.349 85.8577 316.366 86.9739C315.785 87.2783 316.298 88.1576 316.879 87.8532C319.067 86.6356 318.52 83.524 316.606 82.3403C313.632 80.4801 308.71 81.7991 305.667 82.8138C298.147 85.2151 291.926 91.2354 290.798 99.1836C290.662 99.7586 291.653 100.029 291.756 99.3865Z" fill="#272727"/>
<path d="M294.046 100.908C295.721 98.9806 297.84 97.3572 299.891 95.8352C301.873 94.347 303.993 93.1294 306.454 92.5883C307.103 92.453 306.83 91.4722 306.18 91.6074C303.651 92.1824 301.429 93.4338 299.378 94.9558C297.259 96.5454 295.071 98.2027 293.328 100.198C292.884 100.672 293.601 101.416 294.046 100.908Z" fill="#272727"/>
<path d="M306.59 92.6897C307.308 91.0662 308.231 89.5104 309.359 88.1237C309.564 87.887 309.803 87.4811 310.077 87.312C310.316 86.8723 310.624 86.8385 311.068 87.2444C311.615 87.2444 311.854 87.4473 311.854 87.9208C312.23 88.6311 312.265 89.8487 312.401 90.6604C312.538 91.303 313.529 91.0324 313.392 90.3898C313.119 89.1046 312.777 84.5048 310.316 85.7562C309.359 86.2297 308.641 87.4135 308.026 88.2252C307.103 89.4766 306.351 90.7957 305.702 92.1824C305.428 92.7573 306.317 93.2985 306.59 92.6897Z" fill="#272727"/>
<path d="M313.187 90.9648C314.931 88.7326 318.486 85.6548 321.528 87.3121C322.109 87.6165 322.621 86.7371 322.04 86.4327C318.52 84.5725 314.555 87.6165 312.435 90.2546C312.059 90.7619 312.777 91.4722 313.187 90.9648Z" fill="#272727"/>
<path d="M322.519 87.1429C322.997 86.3988 325.219 83.7269 326.176 84.4372C326.689 84.8092 326.792 86.1283 326.928 86.7371C327.133 87.6841 327.202 88.6311 327.236 89.6119C327.27 90.2545 328.296 90.2545 328.261 89.6119C328.227 88.2591 328.056 86.94 327.715 85.6209C327.509 84.8769 327.339 83.4563 326.45 83.2196C325.629 83.0167 324.501 83.7946 323.886 84.2342C322.963 84.8769 322.245 85.6886 321.664 86.6356C321.288 87.1767 322.177 87.6841 322.519 87.1429Z" fill="#272727"/>
<path d="M295.379 99.2512C297.737 101.517 300.233 103.614 302.899 105.508C305.531 107.368 308.094 108.688 311.41 108.518C312.059 108.485 312.059 107.47 311.41 107.504C308.026 107.673 305.531 106.185 302.899 104.291C300.472 102.532 298.216 100.604 296.062 98.5409C295.618 98.1013 294.9 98.8115 295.379 99.2512Z" fill="#272727"/>
<path d="M288.474 102.735C292.2 119.105 282.492 136.996 290.525 152.656C292.029 155.598 294.319 158.27 297.464 159.589C300.54 160.875 304.095 160.773 307.274 159.759C314.315 157.526 318.862 151.066 322.348 144.978C324.57 141.157 326.416 137.064 327.509 132.769C328.056 130.638 328.398 128.406 328.501 126.207C328.603 123.671 328.261 121.134 328.364 118.597C328.398 117.955 327.373 117.955 327.339 118.597C327.202 122.724 327.749 126.647 326.928 130.739C326.211 134.392 324.877 137.943 323.203 141.258C320.092 147.481 315.888 154.482 309.427 157.763C306.078 159.454 301.942 160.097 298.353 158.778C294.832 157.492 292.508 154.415 291.004 151.134C287.79 143.998 288.166 135.88 289.021 128.304C289.978 119.713 291.482 111.021 289.534 102.43C289.294 101.855 288.303 102.092 288.474 102.735Z" fill="#272727"/>
<path d="M304.334 136.963C309.393 136.523 314.726 135.576 319.784 136.117C320.434 136.185 320.434 135.17 319.784 135.102C314.726 134.527 309.393 135.508 304.334 135.948C303.685 136.016 303.685 137.03 304.334 136.963Z" fill="#272727"/>
<path d="M319.306 135.88C318.656 139.601 317.665 143.186 316.332 146.703C316.093 147.312 317.084 147.583 317.323 146.974C318.691 143.456 319.682 139.837 320.297 136.151C320.4 135.508 319.408 135.238 319.306 135.88Z" fill="#272727"/>
<path d="M306.146 90.8634C305.121 96.8498 306.249 103.986 312.435 106.726C313.017 106.996 313.563 106.117 312.948 105.846C307.171 103.276 306.18 96.6807 307.137 91.1339C307.24 90.4913 306.249 90.2207 306.146 90.8634Z" fill="#272727"/>
<path d="M327.168 89.24C327.236 91.1678 327.202 93.1295 327.475 95.0235C327.749 97.0866 329.629 99.3865 328.637 101.45C328.364 102.025 329.253 102.566 329.526 101.957C330.415 100.097 329.629 98.541 328.979 96.7146C328.125 94.3809 328.33 91.6751 328.227 89.2061C328.159 88.5635 327.133 88.5635 327.168 89.24Z" fill="#272727"/>
<path d="M315.238 106.016C316.742 105.238 318.451 106.049 318.793 107.673C318.827 107.842 319.067 107.774 319.032 107.605C318.622 105.813 316.742 104.933 315.102 105.779C314.965 105.88 315.102 106.117 315.238 106.016Z" fill="white"/>
<path d="M317.836 107.74C318.075 108.011 318.246 108.315 318.349 108.654C318.417 108.823 318.656 108.755 318.588 108.586C318.451 108.214 318.246 107.876 318.007 107.571C317.905 107.436 317.699 107.639 317.836 107.74Z" fill="white"/>
<path d="M324.706 105.373C325.014 103.986 325.903 102.836 327.202 102.194C327.338 102.126 327.236 101.889 327.065 101.991C325.698 102.633 324.775 103.851 324.467 105.305C324.433 105.474 324.672 105.542 324.706 105.373Z" fill="white"/>
<path d="M264.513 33.6705C262.154 34.8543 260.172 37.0866 259.283 38.0674C257.096 40.5364 255.968 42.8363 254.737 45.4067C253.712 47.5037 252.515 50.48 251.558 54.2004C252.891 54.4372 254.224 54.6401 255.557 54.8769C255.489 56.1621 255.489 58.0561 256.002 60.2884C256.48 62.3177 257.267 65.5646 260.001 67.8307C263.761 71.0099 268.751 70.232 269.674 70.0967C269.743 71.6863 270.085 73.9524 271.383 76.2861C271.725 76.8611 272.067 77.4023 272.409 77.8758C274.289 77.3346 277.194 76.2185 280.031 73.9186C287.278 68.1351 288.269 59.5105 288.577 57.0077C289.021 53.152 289.876 45.8803 285.056 39.86C280.031 33.6367 270.495 30.6942 264.513 33.6705Z" fill="white"/>
<path d="M257.506 40.7055C258.463 39.285 260.309 37.188 262.394 35.7337C265.744 33.4 267.247 34.3808 268.957 32.3177C270.187 30.8295 270.973 28.3943 270.05 27.2444C268.581 25.418 263.351 27.6164 262.667 27.9208C261.163 28.5634 256.207 30.6266 254.224 35.8351C252.584 40.1982 253.677 44.967 254.429 45.0685C254.635 45.1023 254.771 44.7641 255.865 43.1068C256.378 42.2613 256.959 41.4834 257.506 40.7055Z" fill="#FEA300"/>
<path d="M264.957 30.5251C264.684 31.4045 264.274 33.1632 265.641 36.6131C268.068 42.8025 273.742 48.3493 276.579 47.3346C277.194 47.0979 277.844 46.4891 279.074 46.4214C279.382 46.4214 280.613 46.3538 281.57 47.0979C283.074 48.2816 283.142 50.8521 282.151 52.5094C281.98 52.8138 281.057 54.2005 279.655 54.3019C278.425 54.4034 278.015 53.4564 277.023 53.3887C274.597 53.2534 272.512 58.5297 272.238 59.2399C271.691 60.5928 270.358 64.1103 271.315 68.6086C271.52 69.5894 271.999 71.6526 273.469 73.7833C276.648 78.3493 281.98 79.4654 283.962 79.8713C285.911 80.2771 293.328 81.7991 299.105 77.0641C300.028 76.32 303.07 73.7495 303.89 69.3865C305.292 62.0133 299.036 56.5003 298.66 56.196C298.387 52.3741 297.464 46.2861 294.217 39.6232C292.166 35.3955 290.252 31.506 285.911 28.5634C280.202 24.7416 271.896 23.6593 267.555 26.9738C267.111 27.3797 265.641 28.5296 264.957 30.5251Z" fill="#FEA300"/>
<path d="M258.463 66.816C257.95 67.3234 256.446 68.8792 256.173 71.3143C255.797 74.6965 258.087 77.0302 258.565 77.5037C261.061 80.0404 265.231 81.055 268.239 79.533C268.478 79.4316 271.11 78.0449 271.212 76.0494C271.247 75.17 270.768 74.7303 270.084 72.7687C269.64 71.4834 269.367 70.435 269.162 69.7247C268.239 70.0291 266.666 70.435 264.718 70.1644C261.231 69.7247 259.078 67.4925 258.463 66.816Z" fill="#FEA300"/>
<path opacity="0.12" d="M265.299 33.5015C265.333 34.5499 265.47 36.1058 266.188 37.763C266.667 38.8791 267.145 39.5556 267.521 40.0967C268.957 42.2613 269.435 44.2907 270.187 46.5567C271.384 50.0742 271.178 53.0167 270.939 56.6695C270.734 59.7134 270.051 64.347 267.829 69.7247C268.752 69.9953 270.085 70.5364 271.52 71.4835C274.152 73.2422 275.349 75.3391 276.101 76.32C277.639 78.3155 281.057 80.4124 289.295 80.2771C288.474 79.4654 287.312 78.2478 286.047 76.7597C283.074 73.3098 280.476 70.2997 278.938 66.6469C278.049 64.55 276.682 60.2546 277.741 54.0314C278.698 54.5049 279.826 54.471 280.715 53.8961C281.638 53.2873 282.219 52.0697 281.911 50.9536C281.535 49.6683 279.963 48.789 278.357 49.1948C278.015 48.3493 277.468 47.1317 276.579 45.8126C275.178 43.7495 273.708 42.4643 273.161 41.9908C271.418 40.5026 268.888 37.966 265.299 33.5015Z" fill="#606060"/>
<path opacity="0.14" d="M251.934 53.5917C251.969 53.0505 253.712 52.6108 255.181 52.7123C256.48 52.8138 258.018 53.3887 257.984 53.896C257.95 54.3696 256.515 54.7416 255.455 54.7754C253.814 54.8431 251.934 54.1328 251.934 53.5917Z" fill="#606060"/>
<path d="M256.173 41.0099C254.224 45.2376 252.481 49.533 250.977 53.9299C250.875 54.2005 251.08 54.471 251.319 54.5387C252.652 55.046 253.985 55.2828 255.386 55.2489C256.036 55.2489 256.036 54.2343 255.386 54.2343C254.053 54.2343 252.823 53.9975 251.592 53.5578C251.695 53.7608 251.832 53.9637 251.934 54.1666C253.404 49.8374 255.079 45.6097 257.027 41.4834C257.335 40.9423 256.446 40.4011 256.173 41.0099Z" fill="#272727"/>
<path d="M255.25 55.4519C255.523 59.8149 255.933 64.6514 259.215 67.9321C262.36 71.1114 266.906 70.8408 271.042 70.3673C271.691 70.2996 271.691 69.285 271.042 69.3526C267.213 69.7923 262.872 70.1644 259.933 67.2219C256.856 64.1441 256.549 59.5443 256.275 55.4519C256.241 54.8093 255.216 54.8093 255.25 55.4519Z" fill="#272727"/>
<path d="M269.025 70.4688C269.469 72.8363 270.29 75.1024 271.452 77.1993C271.759 77.7743 272.648 77.267 272.34 76.692C271.212 74.6289 270.46 72.4981 270.016 70.1982C269.914 69.5556 268.922 69.8261 269.025 70.4688Z" fill="#272727"/>
<path d="M255.933 60.6266C257.608 62.081 260.104 61.4045 260.753 59.2737C260.958 58.6311 259.967 58.3944 259.762 59.0032C259.352 60.3561 257.745 60.8634 256.685 59.8826C256.173 59.4767 255.455 60.1869 255.933 60.6266Z" fill="#272727"/>
<path d="M259.078 59.2399C259.625 59.3752 260.035 59.6796 260.377 60.0854C260.548 60.2884 260.924 60.2545 261.095 60.0854C261.3 59.8825 261.266 59.5781 261.095 59.3752C260.65 58.834 260.035 58.4282 259.352 58.2591C258.736 58.09 258.463 59.0708 259.078 59.2399Z" fill="#272727"/>
<path d="M260.616 46.5905C260.89 45.17 262.667 45.4406 263.624 45.9479C264.445 46.3876 265.026 47.0978 265.368 47.9434C265.607 48.5522 266.598 48.2816 266.359 47.6728C265.812 46.2185 264.684 45.0685 263.112 44.6627C261.676 44.2906 259.967 44.7303 259.659 46.3199C259.522 46.9625 260.514 47.2331 260.616 46.5905Z" fill="#272727"/>
<path d="M260.582 40.604C262.12 38.0674 265.128 40.0291 265.743 42.1599C265.914 42.8025 266.906 42.5319 266.735 41.8893C266.29 40.3335 265.197 38.8791 263.522 38.4733C262.018 38.135 260.48 38.7777 259.693 40.0629C259.352 40.6717 260.24 41.179 260.582 40.604Z" fill="#272727"/>
<path d="M261.608 52.3402C262.257 52.3402 262.257 51.3256 261.608 51.3256C260.958 51.3256 260.924 52.3402 261.608 52.3402Z" fill="#272727"/>
<path d="M263.556 50.8183C263.59 50.8183 263.658 50.8183 263.693 50.8183C263.966 50.8183 264.205 50.5815 264.205 50.3109C264.205 50.0403 263.966 49.8036 263.693 49.8036C263.658 49.8036 263.59 49.8036 263.556 49.8036C263.282 49.8036 263.043 50.0403 263.043 50.3109C263.043 50.6153 263.282 50.8183 263.556 50.8183Z" fill="#272727"/>
<path d="M263.59 52.5432C263.59 52.577 263.59 52.6108 263.59 52.6446C263.59 53.2872 264.616 53.2872 264.616 52.6446C264.616 52.6108 264.616 52.577 264.616 52.5432C264.616 51.9006 263.59 51.9006 263.59 52.5432C263.59 52.577 263.59 52.6108 263.59 52.6446C263.59 53.2872 264.616 53.2872 264.616 52.6446C264.616 52.6108 264.616 52.577 264.616 52.5432C264.616 51.9006 263.59 51.9006 263.59 52.5432Z" fill="#272727"/>
<path d="M278.493 47.3684C279.416 46.0494 280.988 46.8949 281.535 47.9772C281.98 48.8228 281.98 49.8374 281.946 50.7506C281.809 53.0505 279.86 54.674 277.604 53.2534C277.058 52.8814 276.545 53.7608 277.092 54.1328C278.425 55.0122 280.134 55.1136 281.467 54.099C282.834 53.0505 283.074 51.3256 282.971 49.7021C282.868 48.1463 282.253 46.4214 280.612 45.8464C279.45 45.4406 278.288 45.8802 277.604 46.8611C277.263 47.3684 278.151 47.8757 278.493 47.3684Z" fill="#272727"/>
<path d="M186.545 28.0561C185.827 28.0561 185.109 28.09 184.426 28.09C183.264 30.3222 182.614 32.3515 182.238 33.8397C181.144 38.2027 181.418 41.8217 181.623 43.5804C181.76 44.7642 181.965 45.745 182.136 46.4214C182.751 46.4214 183.366 46.4214 183.981 46.4214C184.221 47.2332 184.46 48.0449 184.699 48.8566C190.476 48.8228 195.227 48.8228 198.543 48.8566C218.641 49.0257 232.656 49.8036 235.903 49.9727C239.971 50.2095 243.286 50.4462 245.337 50.5815C245.406 49.3301 245.747 48.8904 246.055 48.7551C246.602 48.5184 247.08 49.0934 247.798 48.9581C248.55 48.8228 249.029 48.0449 249.336 47.3346C249.952 47.639 251.08 48.0449 252.413 47.842C252.72 47.8081 252.994 47.7067 253.233 47.639C253.814 46.4891 254.395 45.3391 254.976 44.1892C254.156 43.9186 252.994 43.6819 251.592 43.6819C250.806 43.6819 250.123 43.7833 249.542 43.8848C249.473 43.7157 248.926 42.1937 247.491 41.8555C247.046 41.754 246.67 41.7878 246.363 41.8555C246.158 41.4834 245.952 41.1114 245.747 40.7394C244.927 40.6041 243.662 40.4011 242.158 40.1306C229.956 37.9321 221.444 35.2602 214.95 33.3324C208.729 31.4722 199.671 28.9355 188.049 26.1283C187.57 26.7709 187.058 27.4135 186.545 28.0561Z" fill="white"/>
<path opacity="0.07" d="M181.726 41.179C182.033 41.1114 182.375 41.8893 182.751 41.7878C183.366 41.6526 183.23 39.5218 183.366 37.9321C183.469 36.4102 183.913 34.2117 185.417 31.5398C186.408 31.9457 187.912 32.5883 189.724 33.3662C196.253 36.1734 200.765 38.338 202.132 38.9468C211.156 43.1069 221.068 44.9671 223.564 45.4406C229.238 46.5229 237.099 47.4699 246.534 47.0641C246.123 48.1802 245.713 49.2963 245.303 50.4124C243.731 50.3786 241.44 50.3786 238.638 50.311C226.606 50.0742 218.197 49.7022 213.378 49.4992C206.575 49.2287 196.834 48.9581 184.528 48.9919C184.392 48.0787 184.255 47.1655 184.118 46.2523C183.332 46.3876 182.546 46.5229 181.76 46.6582C181.247 42.4305 181.384 41.2467 181.726 41.179Z" fill="#606060"/>
<path d="M187.263 26.1621C182.99 32.6897 181.794 40.807 183.982 48.2816C184.152 48.9242 185.144 48.6537 184.973 48.011C182.854 40.7732 184.016 32.9941 188.152 26.6694C188.528 26.0945 187.639 25.5871 187.263 26.1621Z" fill="#272727"/>
<path d="M188.152 27.1429C207.396 31.9456 226.606 36.7483 245.85 41.5172C246.499 41.6863 246.773 40.7055 246.123 40.5364C226.879 35.7337 207.669 30.931 188.425 26.1621C187.81 25.993 187.536 26.9738 188.152 27.1429Z" fill="#272727"/>
<path d="M184.699 49.3977C204.764 49.2286 224.828 49.7021 244.859 50.7844C245.508 50.8182 245.508 49.8036 244.859 49.7698C224.828 48.6875 204.764 48.214 184.699 48.3831C184.05 48.3831 184.05 49.3977 184.699 49.3977Z" fill="#272727"/>
<path d="M245.542 41.1452C246.91 44.1554 246.602 47.5714 244.722 50.3109C244.346 50.8521 245.235 51.3594 245.611 50.8183C247.696 47.7743 247.969 43.9862 246.431 40.6379C246.158 40.0629 245.269 40.5702 245.542 41.1452Z" fill="#272727"/>
<path d="M246.568 42.4643C246.944 42.7349 247.217 42.6334 247.661 42.7349C248.516 42.9716 248.858 43.7495 249.029 44.5612C249.302 46.0494 248.926 49.1948 246.704 48.3155C246.089 48.0787 245.816 49.0595 246.431 49.2963C248.687 50.1757 250.157 47.842 250.157 45.8803C250.157 44.798 250.02 43.5804 249.405 42.6672C249.2 42.3628 248.926 42.0584 248.584 41.8893C248.14 41.6864 247.525 41.8217 247.149 41.5511C246.533 41.2129 246.021 42.0922 246.568 42.4643Z" fill="#272727"/>
<path d="M249.576 44.3244C251.319 44.223 253.062 44.2568 254.771 44.4936C255.421 44.5612 255.421 43.5466 254.771 43.4789C253.028 43.276 251.319 43.2083 249.576 43.3098C248.926 43.3774 248.926 44.3921 249.576 44.3244Z" fill="#272727"/>
<path d="M249.439 48.0449C250.84 48.2816 252.242 48.3831 253.643 48.2478C254.293 48.1802 254.293 47.1655 253.643 47.2332C252.31 47.3346 251.011 47.3008 249.712 47.064C249.063 46.9626 248.79 47.9096 249.439 48.0449Z" fill="#272727"/>
<path d="M186.682 27.7856C183.366 25.8915 182.443 31.8104 181.999 33.6706C180.974 37.9659 180.495 42.3966 181.76 46.692C181.828 46.8949 182.033 47.064 182.238 47.064C182.683 47.064 183.161 47.064 183.606 47.064C184.255 47.064 184.255 46.0494 183.606 46.0494C183.161 46.0494 182.683 46.0494 182.238 46.0494C182.409 46.1847 182.58 46.2861 182.717 46.4214C181.828 43.3098 181.828 40.1644 182.341 36.9851C182.58 35.5646 182.888 34.1441 183.264 32.7574C183.503 31.8442 184.255 27.5488 186.135 28.6649C186.75 29.0031 187.263 28.1238 186.682 27.7856Z" fill="#272727"/>
<path d="M223.632 35.0573C223.017 34.3132 221.991 34.4147 221.854 34.4147C220.727 34.4823 219.633 35.497 218.436 37.966C216.112 42.6672 216.009 47.3685 216.009 48.1126C215.975 51.3595 216.283 56.6357 218.607 62.9265C218.812 65.5647 219.257 69.2512 220.248 73.5466C221.991 81.258 223.837 89.3753 230.195 96.5793C232.587 99.3189 237.304 104.629 245.508 106.557C254.088 108.586 261.061 105.576 262.77 104.798C264.274 104.088 268.478 101.991 272.033 97.5602C274.186 94.8882 276.681 91.9795 276.271 88.3944C276.1 86.8386 275.417 85.5196 274.391 83.4226C273.366 81.3256 272.819 80.2772 271.725 79.8713C270.221 79.2963 268.615 80.311 266.837 81.3257C263.829 83.0167 263.556 84.6402 260.309 86.3313C259.454 86.771 258.6 87.0754 256.89 87.6165C254.19 88.4959 251.524 89.3753 249.063 89.5444C243.696 89.9164 239.39 86.8724 238.159 85.9931C233.613 82.78 231.835 78.4846 230.673 75.6774C228.076 69.3865 228.281 63.603 228.725 60.2208C230.331 59.9502 231.323 59.3076 231.801 58.9356C233.613 57.5489 234.057 55.621 234.741 52.6447C235.185 50.7845 235.39 49.8037 234.912 49.4316C233.921 48.6875 230.878 51.1227 230.195 51.6977C230.331 49.3978 230.673 47.5376 231.015 46.2185C231.459 44.4598 231.699 43.5466 232.314 42.8363C233.51 41.4496 234.912 41.5849 235.39 40.2659C235.664 39.5556 235.63 38.5748 235.049 37.9998C234.365 37.3234 232.895 37.3572 231.63 38.338C231.22 37.4587 230.4 36.9175 229.511 36.8837C228.622 36.8499 228.041 37.391 227.87 37.5263C227.973 36.6131 227.563 35.7676 226.879 35.4293C225.956 34.9558 224.486 35.497 223.94 36.8837C223.974 36.7146 224.213 35.7676 223.632 35.0573Z" fill="white"/>
<path opacity="0.12" d="M221.854 34.4147C221.034 35.8352 220.009 37.9321 219.325 40.6717C217.821 46.6244 219.052 51.5962 219.598 53.9976C225.478 78.789 222.914 79.3978 227.016 85.2152C228.52 87.3121 238.843 101.382 254.224 99.5218C267.111 97.966 273.947 86.3651 274.836 84.8093C275.348 86.1622 275.964 88.4621 275.553 91.2016C274.938 95.2264 272.409 97.7631 271.486 98.7101C270.597 99.5895 269.503 100.367 267.282 101.889C265.299 103.276 263.351 104.494 262.496 104.933C258.429 107.199 252.139 107.741 247.764 107.166C235.869 105.61 228.725 94.4485 225.751 89.8149C218.949 79.2287 218.265 68.5071 218.334 63.1633C217.684 60.9987 217.035 58.8003 216.385 56.6357C215.941 53.2873 215.907 50.5139 215.975 48.586C216.146 43.7495 216.283 40.1306 218.778 37.0528C219.872 35.6999 221.068 34.8882 221.854 34.4147Z" fill="#606060"/>
<path d="M268.136 101.382C273.537 98.8453 277.16 93.5353 276.271 87.515C275.759 83.8623 272.785 77.5714 268.034 79.8036C265.914 80.8183 264.171 82.6785 262.223 83.9975C259.522 85.8239 256.412 87.2444 253.301 88.2253C249.336 89.4767 244.927 89.7473 241.099 87.8532C238.296 86.4665 236.108 84.2005 234.433 81.63C230.742 75.9818 228.828 69.3188 229.272 62.5883C229.306 61.9457 228.281 61.9457 228.246 62.5883C227.87 68.2704 229.135 73.6819 231.665 78.7551C233.886 83.2873 237.134 87.5488 242.056 89.3752C248.038 91.5736 254.566 89.3414 259.967 86.5342C262.394 85.249 264.479 83.5917 266.666 81.9344C268.649 80.4124 270.631 79.6683 272.648 81.6977C275.143 84.2005 275.895 88.5635 275.143 91.878C274.22 95.8352 271.247 98.8115 267.623 100.503C267.042 100.773 267.555 101.653 268.136 101.382Z" fill="#272727"/>
<path d="M229.204 63.028C228.759 61.1678 230.092 60.6943 231.323 59.8149C232.041 59.3076 232.587 58.5973 233.1 57.887C234.399 56.0268 235.425 53.8622 235.698 51.5962C235.835 50.48 236.074 48.7213 234.536 48.6536C232.724 48.586 231.972 50.8521 230.263 51.0212C229.614 51.0888 229.614 52.1035 230.263 52.0358C231.562 51.9006 232.211 51.0888 233.203 50.3447C233.784 49.9051 234.433 49.3977 234.741 50.3786C234.912 50.9197 234.638 51.9344 234.502 52.4755C234.262 53.6255 233.75 54.7416 233.203 55.7901C232.69 56.7371 232.109 57.7179 231.323 58.4958C230.605 59.2399 229.614 59.409 228.828 60.0178C227.768 60.8296 227.939 62.2163 228.212 63.3324C228.383 63.9412 229.374 63.6706 229.204 63.028Z" fill="#272727"/>
<path d="M217.274 57.6841C216.591 53.3211 216.522 48.8566 217.206 44.4936C217.479 42.7348 217.821 40.9423 218.436 39.2512C218.812 38.2027 219.325 36.9851 220.077 36.1396C221.103 35.0234 223.119 34.4485 223.666 36.3425C223.837 36.9851 224.828 36.7145 224.657 36.0719C224.179 34.4485 222.606 33.5691 220.966 34.2117C218.881 35.0573 217.889 37.5939 217.24 39.5218C215.326 45.373 215.326 51.9344 216.249 57.9547C216.385 58.5973 217.377 58.3267 217.274 57.6841Z" fill="#272727"/>
<path d="M222.231 40.232C223.051 38.2365 225.375 34.2118 227.905 36.9513C228.349 37.4248 229.067 36.7146 228.622 36.2411C227.46 34.9897 225.785 34.7867 224.316 35.6323C222.675 36.5455 221.923 38.338 221.239 39.9953C221 40.5702 221.991 40.8408 222.231 40.232Z" fill="#272727"/>
<path d="M226.537 41.0776C226.572 39.7923 227.084 38.3718 228.349 37.763C229.409 37.2557 230.673 37.4924 231.391 38.4056C231.801 38.913 232.519 38.2027 232.109 37.6954C231.118 36.4778 229.34 36.1734 227.939 36.816C226.298 37.5939 225.546 39.3527 225.512 41.0776C225.478 41.7202 226.503 41.7202 226.537 41.0776Z" fill="#272727"/>
<path d="M229.511 41.4158C230.126 39.1497 232.69 37.0866 234.912 38.913C235.425 39.3188 236.142 38.6086 235.63 38.2027C232.793 35.9028 229.374 38.0674 228.52 41.1452C228.349 41.7878 229.34 42.0584 229.511 41.4158Z" fill="#272727"/>
<path d="M234.707 38.7438C235.801 40.2658 233.374 41.2128 232.519 41.9231C231.801 42.4981 231.391 43.2421 231.084 44.0877C230.263 46.4214 229.887 48.958 229.682 51.3932C229.614 52.0358 230.639 52.0358 230.708 51.3932C230.878 49.6007 231.152 47.8081 231.596 46.0494C231.733 45.4744 231.87 44.8994 232.075 44.3244C232.519 43.1407 233.169 42.701 234.16 41.9907C235.39 41.1114 236.689 39.6908 235.595 38.1689C235.219 37.6954 234.331 38.2027 234.707 38.7438Z" fill="#272727"/>
<path d="M216.009 56.6695C216.556 58.9693 217.24 61.2354 218.095 63.4676C218.334 64.0764 219.325 63.8059 219.086 63.1971C218.231 60.9648 217.548 58.6988 217.001 56.3989C216.864 55.7563 215.873 56.0268 216.009 56.6695Z" fill="#272727"/>
<path d="M217.924 64.1103C219.223 75.745 222.128 87.6841 230.024 96.7484C236.313 103.952 246.294 109.432 256.138 107.639C260.787 106.793 265.026 104.494 268.41 101.281C268.888 100.841 268.17 100.097 267.692 100.57C260.924 106.996 251.285 108.688 242.705 104.866C233.476 100.706 227.016 92.8927 223.359 83.6593C220.897 77.4023 219.667 70.7732 218.915 64.1441C218.881 63.4676 217.855 63.4676 217.924 64.1103Z" fill="#272727"/>
</g>
</g>
<defs>
<clipPath id="clip0_1_3085">
<rect width="345" height="136" fill="white"/>
</clipPath>
<clipPath id="clip1_1_3085">
<rect width="345" height="136" fill="white"/>
</clipPath>
<clipPath id="clip2_1_3085">
<rect width="149" height="111" fill="white" transform="translate(181 25)"/>
</clipPath>
</defs>
</svg>
